<svg width="7674" height="1656" viewBox="0 0 7674 1656" fill="none" xmlns="http://www.w3.org/2000/svg">
<path fill-rule="evenodd" clip-rule="evenodd" d="M4975 698.711H4814.25V530.425H4693.08V698.711H4685.9C4635.5 698.711 4598.32 734.076 4598.32 785.311V810.913H4693.08V1148.75C4693.08 1254.84 4751.86 1313.38 4858.64 1313.38H4975V1201.18H4875.42C4835.85 1201.18 4814.25 1179.23 4814.25 1138.98V810.913H4876.62C4913.83 810.913 4936.62 801.151 4953.4 782.886C4966.62 768.243 4975 747.491 4975 723.117V698.711ZM4287.6 943.836C4240.82 941.411 4214.4 914.549 4214.4 874.336C4214.4 824.328 4260.02 791.389 4333.18 791.389C4397.97 791.389 4444.75 824.328 4453.16 873.108H4573.13C4564.73 758.481 4469.94 684.068 4333.18 684.068C4190.45 684.068 4096.85 760.906 4096.85 879.217C4096.85 985.341 4161.64 1047.5 4274.41 1054.84L4391.96 1062.15C4445.95 1065.8 4472.36 1091.43 4472.36 1134.1C4472.36 1185.34 4425.55 1220.7 4346.37 1220.7C4269.62 1220.7 4214.4 1182.91 4206.03 1129.22H4084.86C4093.26 1249.96 4197.62 1328.02 4348.8 1328.02C4496.35 1328.02 4589.91 1249.96 4589.91 1129.22C4589.91 1021.9 4523.93 958.479 4405.18 951.173L4287.6 943.836ZM3613.39 971.894C3600.2 985.309 3591.79 1003.61 3588.2 1024.36V1006.06C3588.2 880.413 3658.97 793.814 3759.75 793.814C3842.51 793.814 3901.32 851.158 3918.1 942.639H3697.35C3655.39 942.639 3630.17 953.566 3613.39 971.894ZM4042.86 1013.37C4042.86 818.219 3945.71 684.068 3759.75 684.068C3586.98 684.068 3468.23 814.566 3468.23 1006.06C3468.23 1192.64 3584.58 1328.02 3768.15 1328.02C3909.69 1328.02 4014.09 1249.96 4034.46 1129.22H3915.71C3897.7 1184.11 3837.73 1218.25 3769.35 1218.25C3662.56 1218.25 3602.59 1146.29 3590.6 1045.08H4042.86V1013.37ZM3199.5 1184.11L3041.15 698.711H2910.37L3120.33 1313.38H3272.66L3482.61 698.711H3357.85L3199.5 1184.11ZM2760.4 698.68C2708.8 698.68 2687.23 707.214 2670.42 721.857C2650.71 740.79 2637.66 765.607 2633.24 792.586V698.68H2512.04V1313.38H2633.21V819.447H2766.38C2820.37 819.447 2844.36 807.26 2861.14 788.964C2874.36 773.124 2882.73 752.372 2882.73 729.195V698.711H2760.43L2760.4 698.68ZM2134.17 1223.13C2065.79 1223.13 2022.6 1187.76 2022.6 1131.68C2022.6 1076.79 2064.59 1041.43 2131.77 1041.43H2293.75V1131.68C2254.14 1191.42 2202.54 1223.13 2134.17 1223.13ZM2174.97 684.068C2023.82 684.068 1923.02 769.44 1917.04 899.938H2036.98C2044.22 835.319 2096.99 793.814 2170.15 793.814C2245.74 793.814 2293.75 840.2 2293.75 912.125V1020.67C2274.54 973.122 2210.95 941.411 2130.58 941.411C1992.63 941.411 1902.65 1019.48 1902.65 1140.21C1902.65 1248.76 1975.81 1325.57 2100.58 1325.57C2191.78 1325.57 2262.55 1286.55 2294.94 1210.94V1313.38H2413.69V898.71C2413.69 768.243 2320.13 684.068 2174.97 684.068ZM1626.75 684.068C1531.99 684.068 1462.38 726.77 1432.38 801.151V462.121H1311.21V1313.38H1432.41V827.981C1480.36 808.457 1523.55 799.954 1565.58 799.954C1660.34 799.954 1709.51 841.396 1709.51 926.768V1313.38H1830.68V897.513C1830.68 759.678 1753.93 684.068 1626.75 684.068Z" fill="#FA5D00"/>
<path fill-rule="evenodd" clip-rule="evenodd" d="M438.837 954.23V1328H377.039V766.099C377.039 731.458 404.918 704.23 438.837 704.23H621.753V891.115C621.753 925.757 595.113 954.23 561.194 954.23H438.837ZM990 328V1264.88C990 1299.53 962.152 1328 928.233 1328H867.675V389.869C867.675 355.227 894.314 328 928.233 328H990ZM745.318 328H805.876V1264.88C805.876 1299.53 778.029 1328 745.318 1328H683.519V639.869C683.519 605.227 711.399 578 745.318 578V328ZM254.682 1328H194.124V389.869C194.124 355.227 220.763 328 254.682 328H316.48V1014.88C316.48 1049.53 288.601 1078 254.682 1078V1328ZM10 1328V389.869C10 355.227 37.8474 328 71.7666 328H132.357V1264.88C132.357 1299.53 105.686 1328 71.7666 1328H10Z" fill="#FA5D00"/>
<path d="M5731.6 1160.2C5731.6 1189.8 5725.6 1216.2 5713.6 1239.4C5701.6 1261.8 5685.6 1281 5665.6 1297C5645.6 1312.2 5622 1324.2 5594.8 1333C5568.4 1341 5540.8 1345 5512 1345C5472.8 1345 5434.4 1338.6 5396.8 1325.8C5359.2 1312.2 5323.6 1293.8 5290 1270.6L5353.6 1199.8C5378.4 1228.6 5405.2 1251.8 5434 1269.4C5462.8 1286.2 5494 1294.6 5527.6 1294.6C5564.4 1294.6 5594.4 1284.6 5617.6 1264.6C5640.8 1244.6 5652.4 1218.6 5652.4 1186.6C5652.4 1159.4 5644.4 1137 5628.4 1119.4C5612.4 1101 5592 1085 5567.2 1071.4C5543.2 1057 5517.2 1043.8 5489.2 1031.8C5461.2 1019 5434.8 1005 5410 989.8C5386 974.6 5366 956.6 5350 935.8C5334 915 5326 889.4 5326 859C5326 835 5331.2 813 5341.6 793C5352.8 773 5367.2 755.8 5384.8 741.4C5403.2 727 5424 716.2 5447.2 709C5471.2 701 5496.4 697 5522.8 697C5558 697 5591.6 701.4 5623.6 710.2C5656.4 719 5687.2 733.4 5716 753.4L5658.4 817C5636.8 792.2 5614 773 5590 759.4C5566 745 5538.8 737.8 5508.4 737.8C5474.8 737.8 5447.6 745.8 5426.8 761.8C5406.8 777.8 5396.8 798.6 5396.8 824.2C5396.8 847.4 5404.8 867.4 5420.8 884.2C5437.6 901 5458.4 916.6 5483.2 931C5508 945.4 5534.8 959.4 5563.6 973C5593.2 986.6 5620.4 1002.2 5645.2 1019.8C5670 1036.6 5690.4 1056.2 5706.4 1078.6C5723.2 1101 5731.6 1128.2 5731.6 1160.2ZM6388.15 709L6154.15 1241.8C6118.15 1321.8 6089.35 1395.4 6067.75 1462.6C6046.95 1529.8 6028.55 1594.2 6012.55 1655.8H5917.75C5945.75 1598.2 5972.15 1543.4 5996.95 1491.4C6021.75 1439.4 6045.75 1387 6068.95 1334.2L5809.75 709H5902.15L6113.35 1231C6145.35 1155 6176.15 1075 6205.75 991C6236.15 906.2 6266.15 812.2 6295.75 709H6388.15ZM6483.81 1333V709H6567.81V795.4C6585.41 777 6604.21 761.4 6624.21 748.6C6645.01 735.8 6665.81 725.8 6686.61 718.6C6708.21 710.6 6729.01 705 6749.01 701.8C6769.81 698.6 6789.01 697 6806.61 697C6869.81 697 6916.21 714.2 6945.81 748.6C6976.21 783 6991.41 832.6 6991.41 897.4V1333H6907.41V908.2C6907.41 880.2 6903.81 856.6 6896.61 837.4C6889.41 817.4 6879.01 801.4 6865.41 789.4C6852.61 777.4 6836.61 769 6817.41 764.2C6799.01 758.6 6778.21 755.8 6755.01 755.8C6721.41 755.8 6687.41 763 6653.01 777.4C6619.41 791.8 6591.01 811 6567.81 835V1333H6483.81ZM7673.89 1186.6C7656.29 1214.6 7636.29 1238.6 7613.89 1258.6C7592.29 1278.6 7569.49 1295 7545.49 1307.8C7521.49 1320.6 7497.09 1329.8 7472.29 1335.4C7447.49 1341.8 7423.49 1345 7400.29 1345C7363.49 1345 7327.89 1338.2 7293.49 1324.6C7259.89 1310.2 7229.89 1289.8 7203.49 1263.4C7177.09 1237 7155.89 1205 7139.89 1167.4C7124.69 1129 7117.09 1085.8 7117.09 1037.8C7117.09 990.6 7125.09 946.2 7141.09 904.6C7157.09 863 7179.09 827 7207.09 796.6C7235.09 765.4 7268.69 741 7307.89 723.4C7347.89 705.8 7391.09 697 7437.49 697C7481.49 697 7520.69 704.6 7555.09 719.8C7590.29 734.2 7620.69 752.2 7646.29 773.8L7585.09 841C7558.69 810.6 7530.69 788.2 7501.09 773.8C7471.49 759.4 7441.89 752.2 7412.29 752.2C7384.29 752.2 7357.49 758.2 7331.89 770.2C7306.29 782.2 7283.89 799.4 7264.69 821.8C7245.49 843.4 7229.89 870.2 7217.89 902.2C7206.69 933.4 7201.09 968.2 7201.09 1006.6C7201.09 1039.4 7205.49 1071.8 7214.29 1103.8C7223.89 1135.8 7238.29 1164.6 7257.49 1190.2C7276.69 1215 7300.69 1235 7329.49 1250.2C7359.09 1265.4 7393.89 1273 7433.89 1273C7472.29 1273 7510.29 1265.4 7547.89 1250.2C7586.29 1234.2 7622.29 1208.6 7655.89 1173.4L7673.89 1186.6Z" fill="#FA5D00"/>
</svg>
