<svg fill="none" height="1000" viewBox="0 0 1000 1000" width="1000" xmlns="http://www.w3.org/2000/svg"><path d="m0 0h1000v1000h-1000z" fill="#fa5d00"/><g fill="#fff"><path d="m830.025 297.472c90.918 153.658 65.605 350.319-61.062 476.069-74.821 75.648-174.953 115.199-275.089 115.199-47.216 0-95.553-8.138-141.597-26.777l47.213 83.785-40.288 23.276-86.332-154.798 153.108-87.287 23.021 40.734-85.163 48.871c126.621 53.554 275.094 25.641 374.107-74.466 110.479-111.738 132.372-285.13 52.964-421.331zm-105.883-110.572-153.108 87.287-23.022-40.734 89.795-51.189c-128.912-60.507-283.189-33.732-385.619 69.829-110.523 111.691-132.376 285.134-52.968 421.289l-39.166 23.288c-90.9232-154.799-65.5991-351.472 59.847-478.351 111.703-112.88 278.612-144.2937 421.326-86.103l-43.751-77.967 40.289-23.2763z"/><path d="m547.709 521.313c0 12.607-9.875 22.962-22.422 22.962h-45.266v135.856h-22.872v-204.293c0-12.607 10.296-22.482 22.872-22.483h67.688zm-181.046 135.848c0 12.607-9.876 22.963-22.423 22.963h-22.873v-341.108c0-12.607 10.296-22.512 22.873-22.512h22.423zm67.88-90.439c0 12.606-10.295 22.511-22.872 22.511v90.891h-22.423v-340.658c0-12.607 10.296-22.962 22.423-22.962h22.872zm181.323 90.439c0 12.607-10.295 22.963-22.422 22.963h-22.873v-250.218c0-12.607 10.296-22.512 22.873-22.512v-90.89h22.422zm68.128 0c0 12.607-9.876 22.963-22.423 22.963h-22.872v-341.108c0-12.607 10.296-22.512 22.872-22.512h22.423z"/></g></svg>