<svg width="1000" height="1000" viewBox="0 0 1000 1000" fill="none" xmlns="http://www.w3.org/2000/svg">
<rect width="1000" height="1000" rx="100" fill="#FA5D00"/>
<path d="M830.025 297.471C920.943 451.129 895.631 647.79 768.964 773.54C694.142 849.188 594.01 888.739 493.874 888.739C446.658 888.739 398.321 880.601 352.277 861.962L399.49 945.747L359.202 969.023L272.87 814.225L425.978 726.938L448.999 767.672L363.837 816.543C490.458 870.097 638.931 842.184 737.943 742.077C848.422 630.339 870.315 456.947 790.907 320.746L830.025 297.471ZM724.142 186.899L571.034 274.186L548.012 233.452L637.808 182.263C508.896 121.756 354.618 148.531 252.188 252.092C141.665 363.783 119.812 537.226 199.22 673.381L160.054 696.669C69.1308 541.87 94.4549 345.197 219.901 218.318C331.604 105.438 498.514 74.0242 641.228 132.215L597.476 54.248L637.765 30.9717L724.142 186.899Z" fill="white"/>
<path d="M547.709 521.314C547.709 533.921 537.834 544.276 525.287 544.276H480.021V680.132H457.149V475.839C457.149 463.232 467.445 453.357 480.021 453.356H547.709V521.314ZM366.663 657.162C366.663 669.769 356.787 680.125 344.24 680.125H321.367V339.017C321.367 326.41 331.663 316.505 344.24 316.505H366.663V657.162ZM434.543 566.723C434.543 579.329 424.248 589.234 411.671 589.234V680.125H389.248V339.467C389.248 326.86 399.544 316.505 411.671 316.505H434.543V566.723ZM615.866 657.162C615.866 669.769 605.571 680.125 593.444 680.125H570.571V429.907C570.571 417.3 580.867 407.395 593.444 407.395V316.505H615.866V657.162ZM683.994 657.162C683.994 669.769 674.118 680.125 661.571 680.125H638.699V339.017C638.699 326.41 648.995 316.505 661.571 316.505H683.994V657.162Z" fill="white"/>
</svg>
