<svg width="1000" height="1000" viewBox="0 0 1000 1000" fill="none" xmlns="http://www.w3.org/2000/svg">
<rect width="1000" height="1000" fill="#FA5D00"/>
<path d="M830.025 297.472C920.943 451.13 895.63 647.791 768.963 773.541C694.142 849.189 594.01 888.74 493.874 888.74C446.658 888.74 398.321 880.602 352.277 861.963L399.49 945.748L359.202 969.024L272.87 814.226L425.978 726.939L448.999 767.673L363.836 816.544C490.457 870.098 638.93 842.185 737.943 742.078C848.422 630.34 870.315 456.948 790.907 320.747L830.025 297.472ZM724.142 186.9L571.034 274.187L548.012 233.453L637.807 182.264C508.895 121.757 354.618 148.532 252.188 252.093C141.665 363.784 119.812 537.227 199.22 673.382L160.054 696.67C69.1308 541.871 94.4549 345.198 219.901 218.319C331.604 105.439 498.513 74.0253 641.227 132.216L597.476 54.249L637.765 30.9727L724.142 186.9Z" fill="white"/>
<path d="M547.709 521.313C547.709 533.92 537.834 544.275 525.287 544.275H480.021V680.131H457.149V475.838C457.149 463.231 467.445 453.356 480.021 453.355H547.709V521.313ZM366.663 657.161C366.663 669.768 356.787 680.124 344.24 680.124H321.367V339.016C321.367 326.409 331.663 316.504 344.24 316.504H366.663V657.161ZM434.543 566.722C434.543 579.328 424.248 589.233 411.671 589.233V680.124H389.248V339.466C389.248 326.859 399.544 316.504 411.671 316.504H434.543V566.722ZM615.866 657.161C615.866 669.768 605.571 680.124 593.444 680.124H570.571V429.906C570.571 417.299 580.867 407.394 593.444 407.394V316.504H615.866V657.161ZM683.994 657.161C683.994 669.768 674.118 680.124 661.571 680.124H638.699V339.016C638.699 326.409 648.995 316.504 661.571 316.504H683.994V657.161Z" fill="white"/>
</svg>
