<svg fill="none" height="500" viewBox="0 0 500 500" width="500" xmlns="http://www.w3.org/2000/svg" xmlns:xlink="http://www.w3.org/1999/xlink"><clipPath id="a"><path d="m0 0h500v500h-500z"/></clipPath><clipPath id="b"><path d="m100 100h300v300h-300z"/></clipPath><g clip-path="url(#a)"><circle cx="250" cy="250" fill="#fa5d00" r="250"/><g clip-path="url(#b)" clip-rule="evenodd" fill="#fff" fill-rule="evenodd"><path d="m235.439 281.62v90.56h-15.24v-136.12c0-8.4 6.86-14.98 15.24-14.98h45.1v45.28c0 8.4-6.58 15.3-14.94 15.3h-30.16z"/><path d="m311 129.9h14.94v226.98c0 8.4-6.86 15.3-14.94 15.3h-15.24v-166.72c0-8.4 6.86-15 15.24-15z"/><path d="m129.721 372.18v-227.28c0-8.4 6.86-15 15.24-15h14.94v226.98c0 8.4-6.58 15.3-14.94 15.3z"/><path d="m189.901 372.18h-14.94v-226.98c0-8.4 6.86-15.3 14.94-15.3h15.24v166.72c0 8.4-6.86 15-15.24 15z"/><path d="m341.16 372.18v-227.28c0-8.4 6.86-15 15.24-15h14.94v226.98c0 8.4-6.58 15.3-14.94 15.3z"/></g></g></svg>