<svg width="120" height="120" viewBox="0 0 120 120" fill="none" xmlns="http://www.w3.org/2000/svg">
<rect width="120" height="120" rx="10" fill="#FA5D00"/>
<path d="M99.6016 35.6963C110.512 54.1353 107.474 77.7352 92.2744 92.8252C83.2959 101.903 71.2799 106.648 59.2637 106.648C53.5978 106.648 47.7968 105.672 42.2715 103.436L47.9375 113.489L43.1025 116.283L32.7432 97.707L51.1162 87.2324L53.8789 92.1211L43.6592 97.9854C58.8536 104.412 76.6703 101.062 88.5518 89.0488C101.809 75.6403 104.436 54.8333 94.9072 38.4893L99.6016 35.6963ZM86.8955 22.4277L68.5225 32.9023L65.7598 28.0146L76.5352 21.8711C61.0658 14.6105 42.5522 17.8238 30.2607 30.251C16.998 43.6539 14.3764 64.4672 23.9053 80.8057L19.2051 83.6006C8.29433 65.0247 11.3332 41.4237 26.3867 26.1982C39.791 12.6526 59.8198 8.88345 76.9453 15.8662L71.6953 6.50977L76.5303 3.7168L86.8955 22.4277Z" fill="white"/>
<path d="M43.998 78.8594C43.998 80.3721 42.8131 81.615 41.3076 81.6152H38.5625V40.6816C38.5626 39.1689 39.7985 37.9805 41.3076 37.9805H43.998V78.8594ZM52.1436 68.0068C52.1434 69.5195 50.9076 70.708 49.3984 70.708V81.6152H46.708V40.7363C46.708 39.2237 47.9434 37.9807 49.3984 37.9805H52.1436V68.0068ZM65.7236 62.5576C65.7236 64.0703 64.5386 65.3133 63.0332 65.3135H57.6006V81.6152H54.8564V57.1006C54.8564 55.5879 56.0916 54.4026 57.6006 54.4023H65.7236V62.5576ZM73.9023 78.8594C73.9023 80.3721 72.667 81.6151 71.2119 81.6152H68.4668V51.5889C68.4668 50.076 69.7027 48.8877 71.2119 48.8877V37.9805H73.9023V78.8594ZM82.0781 78.8594C82.0781 80.3722 80.8923 81.6152 79.3867 81.6152H76.6426V40.6816C76.6427 39.169 77.8777 37.9806 79.3867 37.9805H82.0781V78.8594Z" fill="white"/>
</svg>
