<svg fill="none" height="1896" viewBox="0 0 7716 1896" width="7716" xmlns="http://www.w3.org/2000/svg"><g fill="#fa5d00"><path clip-rule="evenodd" d="m4975 818.711h-160.75v-168.286h-121.17v168.286h-7.18c-50.4 0-87.58 35.365-87.58 86.6v25.602h94.76v337.837c0 106.09 58.78 164.63 165.56 164.63h116.36v-112.2h-99.58c-39.57 0-61.17-21.95-61.17-62.2v-328.067h62.37c37.21 0 60-9.762 76.78-28.027 13.22-14.643 21.6-35.395 21.6-59.769zm-687.4 245.129c-46.78-2.43-73.2-29.29-73.2-69.504 0-50.008 45.62-82.947 118.78-82.947 64.79 0 111.57 32.939 119.98 81.719h119.97c-8.4-114.627-103.19-189.04-239.95-189.04-142.73 0-236.33 76.838-236.33 195.149 0 106.123 64.79 168.283 177.56 175.623l117.55 7.31c53.99 3.65 80.4 29.28 80.4 71.95 0 51.24-46.81 86.6-125.99 86.6-76.75 0-131.97-37.79-140.34-91.48h-121.17c8.4 120.74 112.76 198.8 263.94 198.8 147.55 0 241.11-78.06 241.11-198.8 0-107.32-65.98-170.74-184.73-178.05zm-674.21 28.05c-13.19 13.42-21.6 31.72-25.19 52.47v-18.3c0-125.65 70.77-212.246 171.55-212.246 82.76 0 141.57 57.344 158.35 148.826h-220.75c-41.96 0-67.18 10.93-83.96 29.25zm429.47 41.48c0-195.151-97.15-329.302-283.11-329.302-172.77 0-291.52 130.498-291.52 321.992 0 186.58 116.35 321.96 299.92 321.96 141.54 0 245.94-78.06 266.3-198.8h-118.74c-18.01 54.89-77.98 89.03-146.36 89.03-106.79 0-166.76-71.96-178.75-173.17h452.26zm-843.36 170.74-158.35-485.399h-130.78l209.96 614.669h152.33l209.95-614.669h-124.76zm-439.1-485.43c-51.6 0-73.17 8.534-89.98 23.177-19.71 18.933-32.76 43.75-37.18 70.729v-93.906h-121.2v614.7h121.17v-493.933h133.17c53.99 0 77.98-12.187 94.76-30.483 13.22-15.84 21.59-36.592 21.59-59.769v-30.484h-122.3zm-626.23 524.45c-68.38 0-111.57-35.37-111.57-91.45 0-54.89 41.99-90.25 109.17-90.25h161.98v90.25c-39.61 59.74-91.21 91.45-159.58 91.45zm40.8-539.062c-151.15 0-251.95 85.372-257.93 215.872h119.94c7.24-64.621 60.01-106.126 133.17-106.126 75.59 0 123.6 46.386 123.6 118.306v108.55c-19.21-47.55-82.8-79.26-163.17-79.26-137.95 0-227.93 78.07-227.93 198.8 0 108.55 73.16 185.36 197.93 185.36 91.2 0 161.97-39.02 194.36-114.63v102.44h118.75v-414.67c0-130.467-93.56-214.642-238.72-214.642zm-548.22 0c-94.76 0-164.37 42.702-194.37 117.083v-339.03h-121.17v851.259h121.2v-485.399c47.95-19.524 91.14-28.027 133.17-28.027 94.76 0 143.93 41.442 143.93 126.816v386.61h121.17v-415.87c0-137.832-76.75-213.442-203.93-213.442z" fill-rule="evenodd"/><path clip-rule="evenodd" d="m438.837 1074.23v373.77h-61.798v-561.901c0-34.641 27.879-61.869 61.798-61.869h182.916v186.89c0 34.64-26.64 63.11-60.559 63.11zm551.163-626.23v936.88c0 34.65-27.848 63.12-61.767 63.12h-60.558v-938.131c0-34.642 26.639-61.869 60.558-61.869zm-244.682 0h60.558v936.88c0 34.65-27.847 63.12-60.558 63.12h-61.799v-688.131c0-34.642 27.88-61.869 61.799-61.869zm-490.636 1000h-60.558v-938.131c0-34.642 26.639-61.869 60.558-61.869h61.798v686.88c0 34.65-27.879 63.12-61.798 63.12zm-244.682 0v-938.131c0-34.642 27.8474-61.869 61.7666-61.869h60.5904v936.88c0 34.65-26.671 63.12-60.5904 63.12z" fill-rule="evenodd"/><path d="m5731.6 1280.2c0 29.6-6 56-18 79.2-12 22.4-28 41.6-48 57.6-20 15.2-43.6 27.2-70.8 36-26.4 8-54 12-82.8 12-39.2 0-77.6-6.4-115.2-19.2-37.6-13.6-73.2-32-106.8-55.2l63.6-70.8c24.8 28.8 51.6 52 80.4 69.6 28.8 16.8 60 25.2 93.6 25.2 36.8 0 66.8-10 90-30s34.8-46 34.8-78c0-27.2-8-49.6-24-67.2-16-18.4-36.4-34.4-61.2-48-24-14.4-50-27.6-78-39.6-28-12.8-54.4-26.8-79.2-42-24-15.2-44-33.2-60-54s-24-46.4-24-76.8c0-24 5.2-46 15.6-66 11.2-20 25.6-37.2 43.2-51.6 18.4-14.4 39.2-25.2 62.4-32.4 24-8 49.2-12 75.6-12 35.2 0 68.8 4.4 100.8 13.2 32.8 8.8 63.6 23.2 92.4 43.2l-57.6 63.6c-21.6-24.8-44.4-44-68.4-57.6-24-14.4-51.2-21.6-81.6-21.6-33.6 0-60.8 8-81.6 24-20 16-30 36.8-30 62.4 0 23.2 8 43.2 24 60 16.8 16.8 37.6 32.4 62.4 46.8s51.6 28.4 80.4 42c29.6 13.6 56.8 29.2 81.6 46.8 24.8 16.8 45.2 36.4 61.2 58.8 16.8 22.4 25.2 49.6 25.2 81.6zm656.55-451.2-234 532.8c-36 80-64.8 153.6-86.4 220.8-20.8 67.2-39.2 131.6-55.2 193.2h-94.8c28-57.6 54.4-112.4 79.2-164.4s48.8-104.4 72-157.2l-259.2-625.2h92.4l211.2 522c32-76 62.8-156 92.4-240 30.4-84.8 60.4-178.8 90-282zm95.66 624v-624h84v86.4c17.6-18.4 36.4-34 56.4-46.8 20.8-12.8 41.6-22.8 62.4-30 21.6-8 42.4-13.6 62.4-16.8 20.8-3.2 40-4.8 57.6-4.8 63.2 0 109.6 17.2 139.2 51.6 30.4 34.4 45.6 84 45.6 148.8v435.6h-84v-424.8c0-28-3.6-51.6-10.8-70.8-7.2-20-17.6-36-31.2-48-12.8-12-28.8-20.4-48-25.2-18.4-5.6-39.2-8.4-62.4-8.4-33.6 0-67.6 7.2-102 21.6-33.6 14.4-62 33.6-85.2 57.6v498zm1190.08-146.4c-17.6 28-37.6 52-60 72-21.6 20-44.4 36.4-68.4 49.2s-48.4 22-73.2 27.6c-24.8 6.4-48.8 9.6-72 9.6-36.8 0-72.4-6.8-106.8-20.4-33.6-14.4-63.6-34.8-90-61.2s-47.6-58.4-63.6-96c-15.2-38.4-22.8-81.6-22.8-129.6 0-47.2 8-91.6 24-133.2s38-77.6 66-108c28-31.2 61.6-55.6 100.8-73.2 40-17.6 83.2-26.4 129.6-26.4 44 0 83.2 7.6 117.6 22.8 35.2 14.4 65.6 32.4 91.2 54l-61.2 67.2c-26.4-30.4-54.4-52.8-84-67.2s-59.2-21.6-88.8-21.6c-28 0-54.8 6-80.4 18s-48 29.2-67.2 51.6c-19.2 21.6-34.8 48.4-46.8 80.4-11.2 31.2-16.8 66-16.8 104.4 0 32.8 4.4 65.2 13.2 97.2 9.6 32 24 60.8 43.2 86.4 19.2 24.8 43.2 44.8 72 60 29.6 15.2 64.4 22.8 104.4 22.8 38.4 0 76.4-7.6 114-22.8 38.4-16 74.4-41.6 108-76.8z"/></g></svg>